<?xml version="1.0" encoding="UTF-8" standalone="no"?>
<!-- Created with Inkscape (http://www.inkscape.org/) -->

<svg
   width="114.49022mm"
   height="114.49023mm"
   viewBox="0 0 114.49022 114.49023"
   version="1.1"
   id="svg5"
   sodipodi:docname="hourglass.svg"
   inkscape:version="1.1.2 (b8e25be833, 2022-02-05)"
   xmlns:inkscape="http://www.inkscape.org/namespaces/inkscape"
   xmlns:sodipodi="http://sodipodi.sourceforge.net/DTD/sodipodi-0.dtd"
   xmlns:xlink="http://www.w3.org/1999/xlink"
   xmlns="http://www.w3.org/2000/svg"
   xmlns:svg="http://www.w3.org/2000/svg">
  <sodipodi:namedview
     id="namedview7"
     pagecolor="#ffffff"
     bordercolor="#999999"
     borderopacity="1"
     inkscape:pageshadow="0"
     inkscape:pageopacity="0"
     inkscape:pagecheckerboard="true"
     inkscape:document-units="px"
     showgrid="false"
     showborder="false"
     inkscape:zoom="1"
     inkscape:cx="544.5"
     inkscape:cy="381"
     inkscape:window-width="2560"
     inkscape:window-height="1369"
     inkscape:window-x="-8"
     inkscape:window-y="-8"
     inkscape:window-maximized="1"
     inkscape:current-layer="layer1"
     inkscape:snap-global="true"
     inkscape:snap-smooth-nodes="true"
     inkscape:snap-intersection-paths="false"
     inkscape:snap-object-midpoints="false"
     fit-margin-top="0"
     fit-margin-left="0"
     fit-margin-right="0"
     fit-margin-bottom="0" />
  <defs
     id="defs2">
    <marker
       style="overflow:visible"
       id="Arrow1Lend"
       refX="0"
       refY="0"
       orient="auto"
       inkscape:stockid="Arrow1Lend"
       inkscape:isstock="true">
      <path
         transform="matrix(-0.8,0,0,-0.8,-10,0)"
         style="fill:context-stroke;fill-rule:evenodd;stroke:context-stroke;stroke-width:1pt"
         d="M 0,0 5,-5 -12.5,0 5,5 Z"
         id="path25429" />
    </marker>
    <clipPath
       clipPathUnits="userSpaceOnUse"
       id="clipPath38091">
      <path
         id="path38093"
         style="fill:#0090ff;fill-opacity:1;stroke:none;stroke-width:8.46667;stroke-miterlimit:4;stroke-dasharray:none;stroke-opacity:1"
         d="m -469.24132,-440.14226 v 7.90392 c 0,21.6621 16.27105,24.77614 16.27706,36.89697 -0.006,12.12083 -16.27706,15.23487 -16.27706,36.89699 v 7.9039 h 27.68928 27.68925 v -7.9039 c 0,-21.66212 -16.27102,-24.77616 -16.27703,-36.89699 0.007,-12.12083 16.27703,-15.23487 16.27703,-36.89697 v -7.90392 h -27.68925 z" />
    </clipPath>
    <clipPath
       clipPathUnits="userSpaceOnUse"
       id="clipPath40721">
      <path
         id="path40723"
         style="fill:#0090ff;fill-opacity:1;stroke-width:0.336553"
         d="m -513.37144,-695.86946 v 7.90392 c 0,21.6621 16.27103,24.77614 16.27703,36.89697 -0.006,12.12083 -16.27703,15.23487 -16.27703,36.89697 v 7.90392 h 27.68925 27.68926 v -7.90392 c 0,-21.6621 -16.27103,-24.77614 -16.27704,-36.89697 0.007,-12.12083 16.27704,-15.23487 16.27704,-36.89697 v -7.90392 h -27.68926 z" />
    </clipPath>
  </defs>
  <g
     inkscape:label="Layer 1"
     inkscape:groupmode="layer"
     id="layer1"
     transform="translate(909.4723,667.8274)">
    <path
       id="rect6548"
       style="fill:#ff0000;fill-opacity:0.5;stroke-width:1.27201"
       d="m 821.6582,-343.6543 v 169.32618 h 43.13282 c 0.0246,-45.81101 61.51953,-57.58058 61.51953,-139.45313 v -29.87305 z"
       transform="scale(0.26458333)" />
    <path
       id="path7415"
       style="fill:#ff0000;fill-opacity:0.5;stroke-width:0.336553"
       d="m 217.39706,-90.925199 v 44.800884 h -11.41222 c -0.006,-12.120829 -16.27704,-15.234861 -16.27704,-36.896973 v -7.903911 z" />
    <path
       id="path7436"
       style="fill:#ff0000;fill-opacity:0.5;stroke-width:0.336553"
       d="M 217.39707,-1.3234309 V -46.124316 h -11.41223 c -0.006,12.12083 -16.27704,15.234862 -16.27704,36.8969741 v 7.903911 z" />
    <path
       id="path7438"
       style="fill:#ff0000;fill-opacity:0.5;stroke-width:0.336553"
       d="M 217.39707,-1.3234309 V -46.124315 h 11.41222 c 0.006,12.120829 16.27704,15.234861 16.27704,36.8969731 v 7.903911 z" />
    <path
       id="path7715"
       style="fill:#0090ff;fill-opacity:1;stroke-width:0.336553"
       d="m 112.97863,-90.660616 v 7.903911 c 0,21.662112 16.27104,24.776144 16.27705,36.896974 -0.006,12.120829 -16.27705,15.234859 -16.27705,36.8969707 v 7.9039102 h 27.68927 27.68926 v -7.9039102 c 0,-21.6621117 -16.27104,-24.7761437 -16.27704,-36.8969707 0.007,-12.12083 16.27704,-15.234862 16.27704,-36.896974 v -7.903911 H 140.6679 Z" />
    <path
       id="path18962"
       style="fill:#0090ff;fill-opacity:1;stroke-width:0.336553"
       d="m 29.289115,-97.118008 -5.588909,5.588909 C 8.3827797,-76.211673 17.686189,-62.504357 9.1197177,-53.929386 0.54475463,-45.362909 -13.162567,-54.666327 -28.479993,-39.3489 l -5.588908,5.588908 19.57927,19.579271 L 5.0896329,5.3985421 10.678541,-0.19036637 C 25.995967,-15.507792 16.692558,-29.215108 25.259034,-37.79007 c 8.575671,-8.565771 22.28228,0.736931 37.599706,-14.580495 l 5.588909,-5.588909 -19.579263,-19.579264 z" />
    <rect
       style="fill:#1d1a5e;fill-opacity:0.986014;stroke:none;stroke-width:4.23333;stroke-miterlimit:4;stroke-dasharray:none;stroke-opacity:1"
       id="rect24436"
       width="224.69348"
       height="169.12816"
       x="-93.892868"
       y="-280.50461" />
    <path
       id="path18964"
       style="fill:none;fill-opacity:1;stroke:#ffffff;stroke-width:4.23333;stroke-linecap:square;stroke-miterlimit:4;stroke-dasharray:none;stroke-opacity:1"
       d="m 1.900528,-184.49378 c 8.575671,-8.56577 22.282276,0.73695 37.599705,-14.58049 l 5.58891,-5.58891 -19.579268,-19.57927 -19.5792675,-19.57926 -5.58890906,5.58891 m -14.58049144,37.5997 c -8.570719,8.57073 -22.282285,-0.73693 -37.599707,14.58049 l -5.588907,5.58891 19.579267,19.57927 19.579268,19.57927 5.588907,-5.58891 c 0,0 0.695622,-0.71219 1.026064,-1.06699"
       sodipodi:nodetypes="cscccccsccccc" />
    <rect
       style="fill:#1d1a5e;fill-opacity:0.986014;stroke:none;stroke-width:4.23333;stroke-miterlimit:4;stroke-dasharray:none;stroke-opacity:1"
       id="rect25172"
       width="224.69348"
       height="169.12816"
       x="159.90997"
       y="-283.12384" />
    <path
       style="fill:none;fill-opacity:0.986014;stroke:#ffffff;stroke-width:8.46667;stroke-linecap:square;stroke-miterlimit:4;stroke-dasharray:none;stroke-opacity:1;paint-order:stroke fill markers"
       sodipodi:type="inkscape:offset"
       inkscape:radius="0"
       inkscape:original="M 281.09766 -244.88086 L 275.50781 -239.29102 L 277.06641 -185.55273 C 285.64209 -194.1185 299.34859 -184.81537 314.66602 -200.13281 L 320.25586 -205.7207 L 300.67578 -225.30078 L 281.09766 -244.88086 z M 260.92773 -201.69141 C 252.35701 -193.12068 238.64554 -202.42875 223.32812 -187.11133 L 217.74023 -181.52148 L 237.31836 -161.94336 L 256.89844 -142.36328 L 262.48633 -147.95312 C 262.48633 -147.95312 263.18322 -148.66473 263.51367 -149.01953 L 260.92773 -201.69141 z "
       xlink:href="#path25170"
       id="path26508"
       inkscape:href="#path25170"
       d="m 281.09766,-244.88086 -5.58985,5.58984 1.5586,53.73829 c 8.57568,-8.56577 22.28218,0.73736 37.59961,-14.58008 l 5.58984,-5.58789 -19.58008,-19.58008 z m -20.16993,43.18945 c -8.57072,8.57073 -22.28219,-0.73734 -37.59961,14.58008 l -5.58789,5.58985 19.57813,19.57812 19.58008,19.58008 5.58789,-5.58984 c 0,0 0.69689,-0.71161 1.02734,-1.06641 z" />
    <path
       id="path25170"
       style="fill:none;fill-opacity:0.986014;stroke:#ffffff;stroke-width:4.23333;stroke-linecap:square;stroke-miterlimit:4;stroke-dasharray:none;stroke-opacity:1;paint-order:stroke fill markers"
       d="m 277.06719,-185.55211 c 8.57568,-8.56577 22.28228,0.73695 37.59971,-14.58049 l 5.58891,-5.58891 -19.57927,-19.57927 -19.57927,-19.57926 -5.58891,5.58891 m -14.58049,37.5997 c -8.57072,8.57073 -22.28228,-0.73693 -37.5997,14.58049 l -5.58891,5.58891 19.57927,19.57927 19.57926,19.57927 5.58891,-5.58891 c 0,0 0.69562,-0.71219 1.02607,-1.06699"
       sodipodi:nodetypes="cscccccsccccc" />
    <rect
       style="fill:#1d1a5e;fill-opacity:0.986014;stroke:none;stroke-width:4.23333;stroke-miterlimit:4;stroke-dasharray:none;stroke-opacity:1"
       id="rect26862"
       width="224.69348"
       height="169.12816"
       x="-349.66873"
       y="-281.38135" />
    <path
       id="path26860"
       style="fill:none;fill-opacity:1;stroke:#ffffff;stroke-width:8.46667;stroke-linecap:square;stroke-miterlimit:4;stroke-dasharray:none;stroke-opacity:1"
       d="m -229.71525,-188.23555 c 8.57567,-8.56577 22.28228,0.73695 37.59971,-14.58049 l 5.58891,-5.58891 -19.57927,-19.57927 -19.57927,-19.57926 -5.58891,5.58891 m -14.58049,37.5997 c -8.57072,8.57073 -22.28228,-0.73693 -37.59971,14.58049 l -5.5889,5.58891 19.57926,19.57927 19.57927,19.57927 5.58891,-5.58891 c 0,0 0.69562,-0.71219 1.02606,-1.06699"
       sodipodi:nodetypes="cscccccsccccc" />
    <rect
       style="fill:#1d1a5e;fill-opacity:0.986014;stroke:none;stroke-width:4.23333;stroke-miterlimit:4;stroke-dasharray:none;stroke-opacity:1"
       id="rect27001"
       width="224.69348"
       height="169.12816"
       x="-354.30286"
       y="-86.589943" />
    <path
       style="fill:none;fill-opacity:1;stroke:#ffffff;stroke-width:8.46667;stroke-miterlimit:4;stroke-dasharray:none;stroke-opacity:1"
       sodipodi:type="inkscape:offset"
       inkscape:radius="-4.2318416"
       inkscape:original="M -373.26172 -96.179688 L -381.64648 -87.796875 C -404.62261 -64.820736 -390.66786 -44.260895 -403.51758 -31.398438 C -416.38002 -18.548723 -436.93987 -32.503484 -459.91602 -9.5273438 L -468.29883 -1.1425781 L -438.93164 28.224609 L -409.5625 57.59375 L -401.17773 49.210938 C -378.2016 26.234799 -392.1583 5.6729889 -379.30859 -7.1894531 C -366.44509 -20.03811 -345.88434 -6.082455 -322.9082 -29.058594 L -314.52539 -37.443359 L -343.89453 -66.8125 L -373.26172 -96.179688 z "
       xlink:href="#path27005"
       id="path28053"
       d="m -373.26172,-90.195312 -5.39258,5.390624 c -10.73888,10.738885 -12.5598,20.141679 -13.51562,29.433594 -0.47791,4.645958 -0.63671,9.243983 -1.59766,13.832032 -0.96094,4.588048 -2.87436,9.245513 -6.75586,13.130859 a 4.2322647,4.2322647 0 0 1 -0.004,0.0039 c -3.88535,3.881499 -8.54282,5.794915 -13.13086,6.755859 -4.58805,0.960945 -9.18608,1.119749 -13.83203,1.597657 -9.29192,0.955815 -18.69471,2.776739 -29.4336,13.5156248 l -5.39062,5.3925781 26.375,26.3750001 26.37695,26.376953 5.39258,-5.390625 c 10.73879,-10.7388 12.55832,-20.141198 13.51367,-29.433594 0.47767,-4.646198 0.63887,-9.2457258 1.59961,-13.8339841 0.96074,-4.5882584 2.87233,-9.2454407 6.75391,-13.1308599 a 4.2322647,4.2322647 0 0 1 0.004,-0.0039 c 3.88569,-3.881203 8.54262,-5.793237 13.13086,-6.753906 4.58824,-0.960669 9.18787,-1.119922 13.83399,-1.597656 9.29222,-0.955468 18.69474,-2.77678 29.43359,-13.515625 l 5.39062,-5.392578 -26.37695,-26.376953 z"
       transform="translate(154.16106,17.960512)"
       inkscape:href="#path27005" />
    <rect
       style="fill:#1d1a5e;fill-opacity:0.986014;stroke:none;stroke-width:4.23333;stroke-miterlimit:4;stroke-dasharray:none;stroke-opacity:1"
       id="rect29016"
       width="224.69348"
       height="169.12816"
       x="-93.45446"
       y="-695.3606" />
    <path
       style="fill:none;fill-opacity:1;stroke:#ffffff;stroke-width:8.46667;stroke-miterlimit:4;stroke-dasharray:none;stroke-opacity:1"
       sodipodi:type="inkscape:offset"
       inkscape:radius="-4.2375746"
       inkscape:original="M 99.287109 -436.625 L 93.699219 -431.03711 C 78.381792 -415.71968 87.685613 -402.01247 79.119141 -393.4375 C 70.544178 -384.87102 56.836957 -394.17485 41.519531 -378.85742 L 35.929688 -373.26758 L 55.509766 -353.68945 L 75.087891 -334.10938 L 80.677734 -339.69727 C 95.995161 -355.01469 86.691336 -368.72192 95.257812 -377.29688 C 103.83349 -385.86264 117.54 -376.56149 132.85742 -391.87891 L 138.44727 -397.4668 L 118.86719 -417.04688 L 99.287109 -436.625 z "
       xlink:href="#path29018"
       id="path29100"
       d="m 99.287109,-430.63281 -2.591797,2.59179 c -6.908471,6.90848 -7.975793,12.6806 -8.601562,18.76563 -0.312884,3.04252 -0.414743,6.14349 -1.089844,9.36719 -0.675101,3.2237 -2.075088,6.65042 -4.886718,9.46484 a 4.2379983,4.2379983 0 0 1 -0.0039,0.004 c -2.814418,2.81163 -6.241143,4.21161 -9.464843,4.88672 -3.223701,0.6751 -6.324671,0.77696 -9.367188,1.08984 -6.085035,0.62577 -11.857155,1.69309 -18.765625,8.60156 l -2.59375,2.59375 16.583984,16.58203 16.582032,16.58399 2.59375,-2.5918 c 6.90847,-6.90847 7.975794,-12.68059 8.601562,-18.76562 0.312884,-3.04252 0.414743,-6.14349 1.089844,-9.36719 0.675101,-3.2237 2.075085,-6.65043 4.886719,-9.46485 a 4.2379983,4.2379983 0 0 1 0.0039,-0.004 c 2.814544,-2.81129 6.241242,-4.21147 9.464848,-4.88672 3.2236,-0.67525 6.32471,-0.77669 9.36718,-1.08984 6.08494,-0.62632 11.85705,-1.69494 18.76563,-8.60352 l 2.59375,-2.5918 -16.58399,-16.58398 z"
       transform="translate(-73.33876,-230.30615)" />
    <rect
       style="fill:#1d1a5e;fill-opacity:0.986014;stroke:none;stroke-width:4.23333;stroke-miterlimit:4;stroke-dasharray:none;stroke-opacity:1"
       id="rect29319"
       width="224.69348"
       height="169.12816"
       x="-91.957748"
       y="-484.32458" />
    <path
       id="path29321"
       style="fill:none;stroke:#ffffff;stroke-width:8.46667;stroke-miterlimit:4;stroke-dasharray:none"
       transform="translate(-71.842051,-19.270132)"
       d="m 99.287109,-430.63281 -2.591797,2.59179 c -6.908471,6.90848 -7.975793,12.6806 -8.601562,18.76563 -0.312884,3.04252 -0.414743,6.14349 -1.089844,9.36719 -0.675101,3.2237 -2.075088,6.65042 -4.886718,9.46484 a 4.2379983,4.2379983 0 0 1 -0.0039,0.004 c -2.814418,2.81163 -6.241143,4.21161 -9.464843,4.88672 -3.223701,0.6751 -6.324671,0.77696 -9.367188,1.08984 -6.085035,0.62577 -11.857155,1.69309 -18.765625,8.60156 l -2.59375,2.59375 16.583984,16.58203 16.582032,16.58399 2.59375,-2.5918 c 6.90847,-6.90847 7.975794,-12.68059 8.601562,-18.76562 0.312884,-3.04252 0.414743,-6.14349 1.089844,-9.36719 0.675101,-3.2237 2.075085,-6.65043 4.886719,-9.46485 a 4.2379983,4.2379983 0 0 1 0.0039,-0.004 c 2.814544,-2.81129 6.241242,-4.21147 9.464847,-4.88672 3.2236,-0.67525 6.32471,-0.77669 9.36718,-1.08984 6.08494,-0.62632 11.85705,-1.69494 18.76563,-8.60352 l 2.59375,-2.5918 -16.58399,-16.58398 z" />
    <rect
       style="fill:#1d1a5e;fill-opacity:0.986014;stroke:none;stroke-width:11.0416;stroke-miterlimit:4;stroke-dasharray:none;stroke-opacity:1"
       id="rect32009"
       width="601.47089"
       height="429.82529"
       x="-746.27759"
       y="-748.62433" />
    <path
       id="path38051"
       style="fill:none;fill-opacity:1;stroke:#ffffff;stroke-width:13.2292;stroke-miterlimit:4;stroke-dasharray:none;stroke-opacity:1"
       d="m -469.24131,-440.14225 v 7.90391 c 0,21.66211 16.27104,24.77615 16.27705,36.89698 -0.006,12.12082 -16.27705,15.23485 -16.27705,36.89697 v 7.90391 h 27.68927 27.68926 v -7.90391 c 0,-21.66212 -16.27104,-24.77615 -16.27704,-36.89697 0.007,-12.12083 16.27704,-15.23487 16.27704,-36.89698 v -7.90391 h -27.68926 z"
       clip-path="url(#clipPath38091)"
       transform="translate(-170.01804,-2.0446793)" />
    <path
       id="path37297"
       style="fill:#00ffff;fill-opacity:0.48718;stroke-width:0.336553"
       d="m -711.54805,-442.78845 -10e-6,7.90375 c -1e-5,21.66211 16.27106,24.7762 16.27709,36.89704 -0.006,12.12082 -16.2771,15.2349 -16.27708,36.89702 l -2e-5,7.90376 27.6895,3.8e-4 27.68912,-10e-6 -10e-6,-7.90378 c 10e-6,-21.6621 -16.27106,-24.77619 -16.27706,-36.89701 0.007,-12.12084 16.27707,-15.23491 16.27708,-36.89702 l -10e-6,-7.90378 -27.68948,-3.5e-4 z m 6.86382,6.89887 c 13.88321,-0.006 27.76902,-0.007 41.65318,-0.0113 -0.0447,3.90271 -0.4329,7.89665 -2.02327,11.50485 -2.46133,5.64292 -7.29872,9.75134 -10.62021,14.89474 -3.74333,5.35838 -4.70503,12.59594 -2.26442,18.68732 2.35865,5.91789 7.27183,10.21595 10.76161,15.41763 3.1851,4.40768 4.15114,9.97948 4.15322,15.31204 -13.87605,-9.1e-4 -27.75227,-0.002 -41.62832,-0.003 -0.0725,-3.621 0.35569,-7.29387 1.65822,-10.69254 2.09648,-5.39927 6.3766,-9.4416 9.78231,-13.9911 4.26783,-5.28319 6.00543,-12.72277 3.84813,-19.24271 -1.76157,-5.36404 -5.77101,-9.53038 -9.19805,-13.83433 -4.00719,-4.59302 -6.07919,-10.73738 -6.13337,-16.82959 0.004,-0.40418 0.007,-0.80822 0.011,-1.21242 z"
       sodipodi:nodetypes="cscscccscsccccccccccccccccc" />
    <path
       id="path38311"
       style="fill:none;fill-opacity:1;stroke:#ffffff;stroke-width:13.2292;stroke-linecap:square;stroke-miterlimit:4;stroke-dasharray:none;stroke-opacity:1"
       d="m -430.13982,-395.34136 c 0.007,-12.12083 16.27704,-15.23487 16.27704,-36.89698 v -7.90391 h -27.68926 -27.68927 v 7.90391 m 16.27705,36.89698 c -0.006,12.12082 -16.27705,15.23485 -16.27705,36.89697 v 7.90391 h 27.68927 27.68926 v -7.90391"
       clip-path="url(#clipPath38091)"
       transform="rotate(45,-428.61217,-359.27504)"
       sodipodi:nodetypes="cscccccscccc" />
    <path
       id="path39115"
       style="fill:none;fill-opacity:1;stroke:#ffffff;stroke-width:13.2292;stroke-miterlimit:4;stroke-dasharray:none;stroke-opacity:1"
       d="m -469.24131,-440.14225 v 7.90391 c 0,21.66211 16.27104,24.77615 16.27705,36.89698 -0.006,12.12082 -16.27705,15.23485 -16.27705,36.89697 v 7.90391 h 27.68927 27.68926 v -7.90391 c 0,-21.66212 -16.27104,-24.77615 -16.27704,-36.89697 0.007,-12.12083 16.27704,-15.23487 16.27704,-36.89698 v -7.90391 h -27.68926 z"
       clip-path="url(#clipPath38091)"
       transform="rotate(45,-478.28414,-490.62725)" />
    <path
       id="path41365"
       style="fill:none;fill-opacity:1;stroke:#ffffff;stroke-width:8.46667;stroke-linecap:square;stroke-miterlimit:4;stroke-dasharray:none;stroke-opacity:1"
       d="m -294.27358,-388.26055 c 8.57567,-8.56577 22.28228,0.73695 37.59971,-14.58049 l 5.58891,-5.58891 -19.57927,-19.57927 -19.57927,-19.57926 -5.58891,5.58891 m -14.58049,37.5997 c -8.57072,8.57073 -22.28228,-0.73693 -37.59971,14.58049 l -5.5889,5.58891 19.57926,19.57927 19.57927,19.57927 5.58891,-5.58891 c 0,0 0.69562,-0.71219 1.02606,-1.06699"
       sodipodi:nodetypes="cscccccsccccc" />
    <path
       id="path41367"
       style="fill:none;fill-opacity:1;stroke:#ffffff;stroke-width:8.46667;stroke-linecap:square;stroke-miterlimit:4;stroke-dasharray:none;stroke-opacity:1"
       d="m -844.15753,-602.51263 c 8.57567,-8.56577 22.28228,0.73695 37.59971,-14.58049 l 5.58891,-5.58891 -19.57927,-19.57927 -19.57927,-19.57926 -5.58891,5.58891 m -14.58049,37.5997 c -8.57072,8.57073 -22.28228,-0.73693 -37.59971,14.58049 l -5.5889,5.58891 19.57926,19.57927 19.57927,19.57927 5.58891,-5.58891 c 0,0 0.69562,-0.71219 1.02606,-1.06699"
       sodipodi:nodetypes="cscccccsccccc" />
  </g>
</svg>
